<mxfile host="65bd71144e">
    <diagram id="nnl8RznUBofrdjTorRZm" name="Register">
        <mxGraphModel dx="1974" dy="1717" grid="1" gridSize="10" guides="1" tooltips="1" connect="1" arrows="1" fold="1" page="1" pageScale="1" pageWidth="850" pageHeight="1100" math="0" shadow="0">
            <root>
                <mxCell id="QkkdcEkT8AMZcXuNcrMR-0"/>
                <mxCell id="QkkdcEkT8AMZcXuNcrMR-1" parent="QkkdcEkT8AMZcXuNcrMR-0"/>
                <mxCell id="QkkdcEkT8AMZcXuNcrMR-2" value="" style="strokeWidth=1;shadow=0;dashed=0;align=center;html=1;shape=mxgraph.mockup.containers.browserWindow;rSize=0;strokeColor=#666666;strokeColor2=#008cff;strokeColor3=#c4c4c4;mainText=,;recursiveResize=0;container=0;fillColor=#000000;" parent="QkkdcEkT8AMZcXuNcrMR-1" vertex="1">
                    <mxGeometry x="-400" y="-370" width="1200" height="920" as="geometry"/>
                </mxCell>
                <mxCell id="QkkdcEkT8AMZcXuNcrMR-3" value="Page 1" style="strokeWidth=1;shadow=0;dashed=0;align=center;html=1;shape=mxgraph.mockup.containers.anchor;fontSize=17;fontColor=#666666;align=left;" parent="QkkdcEkT8AMZcXuNcrMR-1" vertex="1">
                    <mxGeometry x="-340" y="-358" width="110" height="26" as="geometry"/>
                </mxCell>
                <mxCell id="QkkdcEkT8AMZcXuNcrMR-4" value="https://www.draw.io" style="strokeWidth=1;shadow=0;dashed=0;align=center;html=1;shape=mxgraph.mockup.containers.anchor;rSize=0;fontSize=17;fontColor=#666666;align=left;" parent="QkkdcEkT8AMZcXuNcrMR-1" vertex="1">
                    <mxGeometry x="-270" y="-310" width="250" height="26" as="geometry"/>
                </mxCell>
                <mxCell id="QkkdcEkT8AMZcXuNcrMR-5" value="" style="rounded=0;whiteSpace=wrap;html=1;fillColor=#6b6570;" parent="QkkdcEkT8AMZcXuNcrMR-1" vertex="1">
                    <mxGeometry x="-400" y="-260" width="1200" height="60" as="geometry"/>
                </mxCell>
                <mxCell id="QkkdcEkT8AMZcXuNcrMR-6" value="Logo" style="rounded=1;whiteSpace=wrap;html=1;fillColor=#3399FF;" parent="QkkdcEkT8AMZcXuNcrMR-1" vertex="1">
                    <mxGeometry x="-380" y="-250" width="350" height="40" as="geometry"/>
                </mxCell>
                <mxCell id="QkkdcEkT8AMZcXuNcrMR-7" value="" style="aspect=fixed;perimeter=ellipsePerimeter;html=1;align=center;shadow=0;dashed=0;spacingTop=3;image;image=img/lib/active_directory/secure.svg;" parent="QkkdcEkT8AMZcXuNcrMR-1" vertex="1">
                    <mxGeometry x="-330" y="-170" width="32" height="50" as="geometry"/>
                </mxCell>
                <mxCell id="QkkdcEkT8AMZcXuNcrMR-8" value="&lt;span style=&quot;font-size: 18px&quot;&gt;First Name&lt;/span&gt;" style="text;html=1;strokeColor=none;fillColor=none;align=left;verticalAlign=middle;whiteSpace=wrap;rounded=0;" parent="QkkdcEkT8AMZcXuNcrMR-1" vertex="1">
                    <mxGeometry x="-330" y="-57" width="220" height="30" as="geometry"/>
                </mxCell>
                <mxCell id="QkkdcEkT8AMZcXuNcrMR-10" value="&lt;span style=&quot;font-size: 36px&quot;&gt;&lt;b&gt;New customer&lt;/b&gt;&lt;/span&gt;" style="text;html=1;strokeColor=none;fillColor=none;align=left;verticalAlign=middle;whiteSpace=wrap;rounded=0;" parent="QkkdcEkT8AMZcXuNcrMR-1" vertex="1">
                    <mxGeometry x="-260" y="-180" width="290" height="70" as="geometry"/>
                </mxCell>
                <mxCell id="QkkdcEkT8AMZcXuNcrMR-11" value="compulsary" style="strokeWidth=1;shadow=0;dashed=0;align=center;html=1;shape=mxgraph.mockup.text.textBox;fontColor=#666666;align=left;fontSize=17;spacingLeft=4;spacingTop=-3;strokeColor=#666666;mainText=" parent="QkkdcEkT8AMZcXuNcrMR-1" vertex="1">
                    <mxGeometry x="-170" y="-57" width="300" height="30" as="geometry"/>
                </mxCell>
                <mxCell id="QkkdcEkT8AMZcXuNcrMR-14" value="" style="line;strokeWidth=2;html=1;fontSize=36;" parent="QkkdcEkT8AMZcXuNcrMR-1" vertex="1">
                    <mxGeometry x="-340" y="-110" width="955" height="10" as="geometry"/>
                </mxCell>
                <mxCell id="QkkdcEkT8AMZcXuNcrMR-15" value="&lt;span style=&quot;font-size: 18px&quot;&gt;Middle Name&lt;/span&gt;" style="text;html=1;strokeColor=none;fillColor=none;align=left;verticalAlign=middle;whiteSpace=wrap;rounded=0;" parent="QkkdcEkT8AMZcXuNcrMR-1" vertex="1">
                    <mxGeometry x="-330" y="-15" width="220" height="30" as="geometry"/>
                </mxCell>
                <mxCell id="QkkdcEkT8AMZcXuNcrMR-16" value="" style="strokeWidth=1;shadow=0;dashed=0;align=center;html=1;shape=mxgraph.mockup.text.textBox;fontColor=#666666;align=left;fontSize=17;spacingLeft=4;spacingTop=-3;strokeColor=#666666;mainText=" parent="QkkdcEkT8AMZcXuNcrMR-1" vertex="1">
                    <mxGeometry x="-170" y="-15" width="300" height="30" as="geometry"/>
                </mxCell>
                <mxCell id="QkkdcEkT8AMZcXuNcrMR-17" value="&lt;span style=&quot;font-size: 18px&quot;&gt;Surname&lt;/span&gt;" style="text;html=1;strokeColor=none;fillColor=none;align=left;verticalAlign=middle;whiteSpace=wrap;rounded=0;" parent="QkkdcEkT8AMZcXuNcrMR-1" vertex="1">
                    <mxGeometry x="-330" y="30" width="220" height="30" as="geometry"/>
                </mxCell>
                <mxCell id="QkkdcEkT8AMZcXuNcrMR-18" value="compulsary" style="strokeWidth=1;shadow=0;dashed=0;align=center;html=1;shape=mxgraph.mockup.text.textBox;fontColor=#666666;align=left;fontSize=17;spacingLeft=4;spacingTop=-3;strokeColor=#666666;mainText=" parent="QkkdcEkT8AMZcXuNcrMR-1" vertex="1">
                    <mxGeometry x="-170" y="30" width="300" height="30" as="geometry"/>
                </mxCell>
                <mxCell id="QkkdcEkT8AMZcXuNcrMR-19" value="&lt;span style=&quot;font-size: 18px&quot;&gt;House Number&lt;/span&gt;" style="text;html=1;strokeColor=none;fillColor=none;align=left;verticalAlign=middle;whiteSpace=wrap;rounded=0;" parent="QkkdcEkT8AMZcXuNcrMR-1" vertex="1">
                    <mxGeometry x="-330" y="100" width="220" height="30" as="geometry"/>
                </mxCell>
                <mxCell id="QkkdcEkT8AMZcXuNcrMR-20" value="compulsary" style="strokeWidth=1;shadow=0;dashed=0;align=center;html=1;shape=mxgraph.mockup.text.textBox;fontColor=#666666;align=left;fontSize=17;spacingLeft=4;spacingTop=-3;strokeColor=#666666;mainText=" parent="QkkdcEkT8AMZcXuNcrMR-1" vertex="1">
                    <mxGeometry x="-170" y="100" width="300" height="30" as="geometry"/>
                </mxCell>
                <mxCell id="QkkdcEkT8AMZcXuNcrMR-21" value="&lt;span style=&quot;font-size: 18px&quot;&gt;Street Name&lt;/span&gt;" style="text;html=1;strokeColor=none;fillColor=none;align=left;verticalAlign=middle;whiteSpace=wrap;rounded=0;" parent="QkkdcEkT8AMZcXuNcrMR-1" vertex="1">
                    <mxGeometry x="-330" y="150" width="220" height="30" as="geometry"/>
                </mxCell>
                <mxCell id="QkkdcEkT8AMZcXuNcrMR-22" value="compulsary" style="strokeWidth=1;shadow=0;dashed=0;align=center;html=1;shape=mxgraph.mockup.text.textBox;fontColor=#666666;align=left;fontSize=17;spacingLeft=4;spacingTop=-3;strokeColor=#666666;mainText=" parent="QkkdcEkT8AMZcXuNcrMR-1" vertex="1">
                    <mxGeometry x="-170" y="150" width="300" height="30" as="geometry"/>
                </mxCell>
                <mxCell id="QkkdcEkT8AMZcXuNcrMR-23" value="&lt;span style=&quot;font-size: 18px&quot;&gt;City&lt;/span&gt;" style="text;html=1;strokeColor=none;fillColor=none;align=left;verticalAlign=middle;whiteSpace=wrap;rounded=0;" parent="QkkdcEkT8AMZcXuNcrMR-1" vertex="1">
                    <mxGeometry x="-330" y="200" width="220" height="30" as="geometry"/>
                </mxCell>
                <mxCell id="QkkdcEkT8AMZcXuNcrMR-24" value="compulsary" style="strokeWidth=1;shadow=0;dashed=0;align=center;html=1;shape=mxgraph.mockup.text.textBox;fontColor=#666666;align=left;fontSize=17;spacingLeft=4;spacingTop=-3;strokeColor=#666666;mainText=" parent="QkkdcEkT8AMZcXuNcrMR-1" vertex="1">
                    <mxGeometry x="-170" y="200" width="300" height="30" as="geometry"/>
                </mxCell>
                <mxCell id="QkkdcEkT8AMZcXuNcrMR-25" value="&lt;span style=&quot;font-size: 18px&quot;&gt;Postcode&lt;/span&gt;" style="text;html=1;strokeColor=none;fillColor=none;align=left;verticalAlign=middle;whiteSpace=wrap;rounded=0;" parent="QkkdcEkT8AMZcXuNcrMR-1" vertex="1">
                    <mxGeometry x="-330" y="242" width="220" height="30" as="geometry"/>
                </mxCell>
                <mxCell id="QkkdcEkT8AMZcXuNcrMR-26" value="compulsary" style="strokeWidth=1;shadow=0;dashed=0;align=center;html=1;shape=mxgraph.mockup.text.textBox;fontColor=#666666;align=left;fontSize=17;spacingLeft=4;spacingTop=-3;strokeColor=#666666;mainText=" parent="QkkdcEkT8AMZcXuNcrMR-1" vertex="1">
                    <mxGeometry x="-170" y="242" width="300" height="30" as="geometry"/>
                </mxCell>
                <mxCell id="QkkdcEkT8AMZcXuNcrMR-27" value="&lt;span style=&quot;font-size: 18px&quot;&gt;Email address&lt;/span&gt;" style="text;html=1;strokeColor=none;fillColor=none;align=left;verticalAlign=middle;whiteSpace=wrap;rounded=0;" parent="QkkdcEkT8AMZcXuNcrMR-1" vertex="1">
                    <mxGeometry x="-330" y="310" width="220" height="30" as="geometry"/>
                </mxCell>
                <mxCell id="QkkdcEkT8AMZcXuNcrMR-28" value="compulsary" style="strokeWidth=1;shadow=0;dashed=0;align=center;html=1;shape=mxgraph.mockup.text.textBox;fontColor=#666666;align=left;fontSize=17;spacingLeft=4;spacingTop=-3;strokeColor=#666666;mainText=" parent="QkkdcEkT8AMZcXuNcrMR-1" vertex="1">
                    <mxGeometry x="-170" y="310" width="300" height="30" as="geometry"/>
                </mxCell>
                <mxCell id="QkkdcEkT8AMZcXuNcrMR-29" value="&lt;span style=&quot;font-size: 18px&quot;&gt;Password&lt;/span&gt;" style="text;html=1;strokeColor=none;fillColor=none;align=left;verticalAlign=middle;whiteSpace=wrap;rounded=0;" parent="QkkdcEkT8AMZcXuNcrMR-1" vertex="1">
                    <mxGeometry x="-330" y="360" width="220" height="30" as="geometry"/>
                </mxCell>
                <mxCell id="QkkdcEkT8AMZcXuNcrMR-30" value="Password" style="strokeWidth=1;shadow=0;dashed=0;align=center;html=1;shape=mxgraph.mockup.text.textBox;fontColor=#666666;align=left;fontSize=17;spacingLeft=4;spacingTop=-3;strokeColor=#666666;mainText=" parent="QkkdcEkT8AMZcXuNcrMR-1" vertex="1">
                    <mxGeometry x="-170" y="360" width="300" height="30" as="geometry"/>
                </mxCell>
                <mxCell id="QkkdcEkT8AMZcXuNcrMR-32" value="Retype password" style="strokeWidth=1;shadow=0;dashed=0;align=center;html=1;shape=mxgraph.mockup.text.textBox;fontColor=#666666;align=left;fontSize=17;spacingLeft=4;spacingTop=-3;strokeColor=#666666;mainText=" parent="QkkdcEkT8AMZcXuNcrMR-1" vertex="1">
                    <mxGeometry x="-170" y="410" width="300" height="30" as="geometry"/>
                </mxCell>
                <mxCell id="VUATNmjZVYnjZPtUkr3d-0" value="&lt;font style=&quot;font-size: 24px&quot;&gt;Register&lt;/font&gt;" style="rounded=1;html=1;shadow=0;dashed=0;whiteSpace=wrap;fontSize=10;fillColor=#E6E6E6;align=center;strokeColor=#E6E6E6;fontColor=#333333;" parent="QkkdcEkT8AMZcXuNcrMR-1" vertex="1">
                    <mxGeometry x="-90" y="480" width="220" height="50" as="geometry"/>
                </mxCell>
            </root>
        </mxGraphModel>
    </diagram>
</mxfile>